<?xml version="1.0" standalone="no"?>
<!DOCTYPE svg PUBLIC "-//W3C//DTD SVG 20010904//EN"
 "http://www.w3.org/TR/2001/REC-SVG-20010904/DTD/svg10.dtd">
<svg version="1.0" xmlns="http://www.w3.org/2000/svg"
 width="350.000000pt" height="350.000000pt" viewBox="0 0 350.000000 350.000000"
 preserveAspectRatio="xMidYMid meet">

<g transform="translate(0.000000,350.000000) scale(0.100000,-0.100000)"
fill="#ebede9" stroke="none">
<path d="M3140 3203 c-145 -15 -314 -62 -577 -159 -98 -36 -250 -90 -338 -121
-374 -127 -804 -322 -1080 -488 -448 -270 -803 -556 -945 -761 -143 -206 -190
-418 -125 -562 53 -118 187 -211 355 -246 137 -27 237 -30 461 -10 241 20 334
14 426 -31 69 -34 95 -70 191 -260 118 -233 160 -270 302 -269 101 0 179 21
246 66 86 59 114 147 133 423 17 237 57 379 166 581 121 223 356 533 667 880
323 362 436 542 446 710 5 93 -14 145 -71 188 -59 45 -165 69 -257 59z"/>
</g>
</svg>
